<?xml version="1.0" encoding="UTF-8"?>
<svg width="752pt" height="752pt" version="1.1" viewBox="0 0 752 752" xmlns="http://www.w3.org/2000/svg">
 <g fill="#fff">
  <path d="m274.66 588.16h107.98c7.5781 0 15.156-2.8398 20.836-7.5781-28.414-23.68-47.359-59.672-47.359-100.4 0-55.883 35.047-103.24 84.297-122.18-2.8398-10.418-12.312-17.996-23.68-17.996-13.262 0-24.625 11.367-24.625 24.625v-3.7891c0-14.207-11.367-24.625-24.625-24.625-13.262 0-25.574 11.367-25.574 24.625v-3.7852c0-14.207-11.367-24.625-24.625-24.625-13.262 0-24.625 11.367-24.625 24.625v-113.66c0-6.6289-2.8398-13.262-7.5781-17.996-4.7344-4.7344-10.418-7.5781-17.996-7.5781-14.207 0-24.625 11.367-24.625 24.625v173.33l-29.363-55.883c-7.5781-15.152-26.52-20.836-41.676-12.312-15.156 7.5781-20.836 26.52-13.262 41.676 55.883 89.98 71.984 115.55 76.719 122.18 0 0 0 0.94531 0.94531 0.94531v0.94531c3.7891 6.6289 6.6289 15.156 6.6289 22.73v17.996c-1.8867 18.949 13.266 34.102 32.211 34.102z"/>
  <path d="m336.22 229.19c0-38.832-31.258-70.09-70.09-70.09-38.832 0-70.09 31.258-70.09 70.09 0 20.836 9.4727 40.727 25.574 53.988v-39.781c0-24.625 19.891-43.57 43.57-43.57 12.312 0 22.73 4.7344 31.258 13.262 8.5234 7.5781 13.262 18.941 13.262 31.258v39.781c16.098-13.262 26.516-33.152 26.516-54.938z"/>
  <path d="m486.82 369.37c-61.566 0-111.77 50.199-111.77 111.77 0 61.566 50.199 111.77 111.77 111.77 61.566 0 111.77-50.199 111.77-111.77 0-61.566-50.199-111.77-111.77-111.77zm47.355 93.77-49.254 49.254c-1.8945 1.8945-3.7891 2.8398-6.6289 2.8398-2.8398 0-4.7344-0.94531-6.6289-2.8398l-31.258-31.258c-3.7891-3.7891-3.7891-9.4727 0-13.262s9.4727-3.7891 13.262 0l24.625 24.625 42.621-42.621c3.7891-3.7891 9.4727-3.7891 13.262 0 3.7891 3.7891 2.8438 9.4727 0 13.262z"/>
  <path d="m513.34 353.27v-124.08c0-4.7344-3.7891-9.4727-9.4727-9.4727h-149.65c0 2.8398 0.94531 6.6289 0.94531 9.4727 0 2.8398 0 6.6289-0.94531 9.4727h140.18v111.77c6.6328 0 13.262 0.94531 18.945 2.8398z"/>
 </g>
</svg>
