<?xml version="1.0" encoding="UTF-8"?>
<svg width="752pt" height="752pt" version="1.1" viewBox="0 0 752 752" xmlns="http://www.w3.org/2000/svg">
 <g fill="#fff">
  <path d="m168.81 538.79c0 11.777 4.6797 23.07 13.004 31.395 8.3281 8.3281 19.621 13.004 31.395 13.004h325.59c11.777 0 23.07-4.6758 31.395-13.004 8.3281-8.3242 13.004-19.617 13.004-31.395v-207.19h-414.38zm295.99-133.2h29.598l0.003907 0.003906c5.2852 0 10.172 2.8203 12.816 7.3984 2.6406 4.5781 2.6406 10.219 0 14.801-2.6445 4.5781-7.5312 7.3984-12.816 7.3984h-29.602c-5.2852 0-10.172-2.8203-12.816-7.3984-2.6445-4.582-2.6445-10.223 0-14.801s7.5312-7.3984 12.816-7.3984zm0 73.996h29.598l0.003907 0.003906c5.2852 0 10.172 2.8203 12.816 7.3984 2.6406 4.5781 2.6406 10.223 0 14.801-2.6445 4.5781-7.5312 7.3984-12.816 7.3984h-29.602c-5.2852 0-10.172-2.8203-12.816-7.3984s-2.6445-10.223 0-14.801 7.5312-7.3984 12.816-7.3984zm-103.6-73.996h29.598l0.003906 0.003906c5.2891 0 10.172 2.8203 12.816 7.3984 2.6445 4.5781 2.6445 10.219 0 14.801-2.6445 4.5781-7.5273 7.3984-12.816 7.3984h-29.598c-5.2891 0-10.176-2.8203-12.816-7.3984-2.6445-4.582-2.6445-10.223 0-14.801 2.6406-4.5781 7.5273-7.3984 12.816-7.3984zm0 73.996h29.598l0.003906 0.003906c5.2891 0 10.172 2.8203 12.816 7.3984 2.6445 4.5781 2.6445 10.223 0 14.801-2.6445 4.5781-7.5273 7.3984-12.816 7.3984h-29.598c-5.2891 0-10.176-2.8203-12.816-7.3984-2.6445-4.5781-2.6445-10.223 0-14.801 2.6406-4.5781 7.5273-7.3984 12.816-7.3984zm-103.59-73.992h29.598c5.2891 0 10.176 2.8203 12.82 7.3984 2.6406 4.5781 2.6406 10.219 0 14.801-2.6445 4.5781-7.5312 7.3984-12.82 7.3984h-29.598c-5.2852 0-10.172-2.8203-12.816-7.3984-2.6445-4.582-2.6445-10.223 0-14.801 2.6445-4.5781 7.5312-7.3984 12.816-7.3984zm0 73.996h29.598c5.2891 0 10.176 2.8203 12.82 7.3984 2.6406 4.5781 2.6406 10.223 0 14.801-2.6445 4.5781-7.5312 7.3984-12.82 7.3984h-29.598c-5.2852 0-10.172-2.8203-12.816-7.3984-2.6445-4.5781-2.6445-10.223 0-14.801 2.6445-4.5781 7.5312-7.3984 12.816-7.3984z"/>
  <path d="m538.79 198.41h-44.395v-14.801c0-5.2891-2.8242-10.172-7.4023-12.816s-10.219-2.6445-14.797 0c-4.582 2.6445-7.4023 7.5273-7.4023 12.816v14.801h-73.996v-14.801c0-5.2891-2.8203-10.172-7.3984-12.816-4.582-2.6445-10.223-2.6445-14.801 0-4.5781 2.6445-7.3984 7.5273-7.3984 12.816v14.801h-74v-14.801c0-5.2891-2.8203-10.172-7.3984-12.816-4.5781-2.6445-10.219-2.6445-14.797 0-4.582 2.6445-7.4023 7.5273-7.4023 12.816v14.801h-44.398c-11.773 0-23.066 4.6758-31.395 13.004-8.3242 8.3242-13.004 19.617-13.004 31.395v59.199l414.38-0.003906v-59.195c0-11.777-4.6758-23.07-13.004-31.395-8.3242-8.3281-19.617-13.004-31.395-13.004z"/>
 </g>
</svg>
