<?xml version="1.0" encoding="UTF-8"?>
<svg width="752pt" height="752pt" version="1.1" viewBox="0 0 752 752" xmlns="http://www.w3.org/2000/svg">
 <g fill="#fff">
  <path d="m246.51 242.8c22.414 0 40.699-18.203 40.699-40.691-0.003906-22.414-18.285-40.699-40.699-40.699-22.422 0-40.699 18.285-40.699 40.699 0 22.488 18.277 40.691 40.699 40.691z"/>
  <path d="m232.08 294.75 14.43 16.492 14.43-16.492-6.2227-24.789h-16.422z"/>
  <path d="m198.41 385.23c0-1.9961 1.6289-3.6992 3.6992-3.6992 2.0664 0 3.6992 1.7031 3.6992 3.6992v181.28c0 9.1758 7.4727 16.648 16.648 16.648l20.352 0.003906v-107.5c0-2.0039 1.6289-3.6992 3.6992-3.6992 2.0664 0 3.6992 1.6953 3.6992 3.6992v107.5h20.422c8.582 0 15.762-6.4297 16.574-14.949v-222.12c0-0.88672 0.29688-1.7031 0.88672-2.3672l33.594-39.137c0.73828-0.8125 1.6953-1.332 2.8125-1.332h83.543c9.168 0 16.648-7.4805 16.648-16.648 0-9.1758-7.4805-16.648-16.648-16.648h-115.44l-43.289 49.273c-0.74609 0.8125-1.7773 1.2578-2.8125 1.2578-1.043 0-2.0703-0.44531-2.7383-1.2578l-42.328-48.172c-4.4453 2.9609-8.6562 6.3633-12.504 10.211-15.316 15.316-23.828 35.816-23.828 57.496v116.54c0 9.1758 7.4727 16.648 16.648 16.648h16.664z"/>
  <path d="m313.11 262.56h94.938c13.246 0 24.051 10.805 24.051 24.051 0 13.32-10.805 24.051-24.051 24.051l-81.84-0.003906-13.098 15.301v100.79h273.79v-220.94h-273.79zm234.35 106.02h-193.65c-2.0703 0-3.6992-1.6289-3.6992-3.6992 0-1.9961 1.6289-3.6992 3.6992-3.6992h193.65c1.9961 0 3.6992 1.7031 3.6992 3.6992 0.003906 2.0703-1.707 3.6992-3.6953 3.6992zm0-39.434h-193.65c-2.0703 0-3.6992-1.6367-3.6992-3.6992 0-2.0703 1.6289-3.6914 3.6992-3.6914h193.65c1.9961 0 3.6992 1.6211 3.6992 3.6914 0.003906 2.0664-1.707 3.6992-3.6953 3.6992zm0-39.43h-96.863c-2.0039 0-3.6992-1.7031-3.6992-3.6992 0-2.0703 1.6953-3.6992 3.6992-3.6992h96.863c1.9961 0 3.6992 1.6289 3.6992 3.6992 0 1.9883-1.7109 3.6992-3.6992 3.6992zm-193.65-46.922h193.65c1.9961 0 3.6992 1.7031 3.6992 3.6992 0 2.0703-1.7031 3.6992-3.6992 3.6992h-193.65c-2.0703 0-3.6992-1.6289-3.6992-3.6992 0-2 1.6289-3.6992 3.6992-3.6992z"/>
  <path d="m412.3 437.37v21.105l-55.727 126.93c-0.8125 1.8711 0.03125 4.0547 1.9023 4.875 0.48047 0.20703 0.98828 0.3125 1.4844 0.3125 1.4219 0 2.7812-0.82031 3.3906-2.2109l56.395-128.45h17.309l-0.003906 82.566c0 2.043 1.6562 3.6992 3.6992 3.6992 2.043 0 3.6992-1.6562 3.6992-3.6992l0.003906-82.566h17.293l56.395 128.45c0.60547 1.3867 1.9648 2.2109 3.3867 2.2109 0.49609 0 1.0078-0.10547 1.4883-0.3125 1.8711-0.82031 2.7148-3.0039 1.9023-4.875l-55.727-126.93v-21.105z"/>
 </g>
</svg>
