<?xml version="1.0" encoding="UTF-8"?>
<svg width="752pt" height="752pt" version="1.1" viewBox="0 0 752 752" xmlns="http://www.w3.org/2000/svg">
 <path d="m174.14 255.95 148.15-70.988c10.695-6.3984 24.656 1.2266 24.656 14v21.324h110.2c9.0039 0 16.301 7.3008 16.301 16.301v67.926c0 21.441-32.598 21.441-32.598 0v-51.629h-93.902v246.29h93.902v-51.629c0-21.434 32.598-21.434 32.598 0v67.926c0 9.0039-7.293 16.301-16.301 16.301h-110.2l-0.0625 21.328c0.011719 11.785-12.379 19.84-23.242 14.645l-148.15-70.988c-6.2188-2.3008-10.656-8.2852-10.656-15.293l0.066406-210.87c0.003906-6.0586 3.4102-11.863 9.2344-14.648zm222.23 99.43c-27.129 0-27.129 41.254 0 41.254h120.38l-23.363 23.359c-19.176 19.176 9.9844 48.34 29.164 29.164l58.445-58.453c7.875-7.875 8.5352-20.859 0-29.395l-58.445-58.453c-19.18-19.176-48.34 9.9883-29.164 29.164l23.363 23.359z" fill="#fff" fill-rule="evenodd"/>
</svg>
