<?xml version="1.0" encoding="UTF-8"?>
<svg width="752pt" height="752pt" version="1.1" viewBox="0 0 752 752" xmlns="http://www.w3.org/2000/svg">
 <g fill="#fff">
  <path d="m281.76 272.29c17.051 0 30.309-13.734 30.309-30.309v-60.621c0-17.051-13.734-30.309-30.309-30.309-16.574 0-30.309 13.734-30.309 30.309v60.145c0 17.051 13.262 30.785 30.309 30.785z"/>
  <path d="m470.24 272.29c17.051 0 30.309-13.734 30.309-30.309l0.003907-60.621c0-17.051-13.734-30.309-30.309-30.309-17.051 0-30.309 13.734-30.309 30.309v60.145c-0.003906 17.051 13.258 30.785 30.305 30.785z"/>
  <path d="m564.96 211.67h-39.309v30.309c0 30.309-24.625 55.41-55.41 55.41-30.309 0-55.41-24.625-55.41-55.41v-30.309h-77.664v30.309c0 30.309-24.625 55.41-55.41 55.41-30.309 0-55.41-24.625-55.41-55.41v-30.309h-39.309c-18.469 0-33.152 15.156-33.152 33.152v322.51c0 18.469 14.68 33.152 33.152 33.152h378.39c18.469 0 33.152-15.156 33.152-33.152l0.003907-322.51c0-18.469-15.156-33.152-33.625-33.152zm-101.82 197.96-86.664 86.664c-4.7344 4.7344-11.367 7.5781-17.523 7.5781s-12.785-2.3672-17.523-7.5781l-45.938-45.938c-9.9453-9.9453-9.9453-25.574 0-35.52 9.9453-9.4727 25.574-9.4727 35.52 0l27.941 28.414 69.145-69.145c9.9453-9.9453 25.574-9.9453 35.52 0 9.4688 9.9492 9.4688 25.578-0.47656 35.523z"/>
 </g>
</svg>
