<?xml version="1.0" encoding="UTF-8"?>
<svg width="752pt" height="752pt" version="1.1" viewBox="0 0 752 752" xmlns="http://www.w3.org/2000/svg">
 <g fill="#fff">
  <path d="m529.58 395.42c-20.41-17.051-41.25-33.625-61.473-50.91-26.188-22.352-51.953-45.227-77.953-67.816-9.1406-7.957-19.039-7.8633-28.367 0-7.7656 6.582-15.582 13.117-23.301 19.699-38.738 32.961-77.523 65.875-116.12 98.977-1.5625 1.3242-2.6523 4.168-2.6992 6.2969-0.14062 47.359-0.14062 94.668-0.09375 142.03 0 2.9375 0.09375 6.0156 0.75781 8.8555 3.7891 17.051 18.375 28.84 36.23 29.031 20.508 0.23828 40.965 0.046875 61.473 0.046875h13.402v-124.17h89.41v123.84c1.2305 0.14062 1.9883 0.28516 2.7461 0.28516 24.246 0 48.496 0.23828 72.742-0.09375 20.316-0.33203 36.039-16.574 36.086-36.938 0.09375-47.832 0.046875-95.617-0.09375-143.45 0-1.9414-1.2773-4.5-2.7461-5.7305z"/>
  <path d="m572.96 340.34c-20.457-17.57-40.918-35.141-61.375-52.711l-0.003906-74.539c0-7.3867-0.046876-14.777-0.14063-22.117 0-3.5508-1.4219-7.4336-3.2188-10.609-4.4531-7.9102-15.582-11.887-25.051-9.4258-10.844 2.793-16.621 9.6133-16.859 20.742-0.1875 7.1055-0.1875 14.254-0.14062 21.359v35.473c-25.195-21.645-50.34-43.285-75.535-64.879-9.8047-8.4297-19.273-8.4766-29.031-0.09375-40.727 34.949-81.457 69.949-122.18 104.9-20.41 17.523-40.824 35.094-61.234 52.664-4.9727 4.2617-8.9492 9.1875-10.133 15.914-2.0352 11.648 3.9766 24.105 14.633 30.215 9.8984 5.7305 21.215 4.5 30.879-3.6953 46.836-39.828 93.676-79.75 140.46-119.68 13.023-11.082 30.641-11.367 43.711-0.28516 27.23 23.062 54.32 46.27 81.504 69.426 19.273 16.434 38.598 32.867 57.871 49.348 5.5391 4.7344 11.746 7.6719 17.902 7.957 13.969 0.09375 26.852-11.129 29.031-24.246 1.8477-10.988-3.0312-18.941-11.035-25.809z"/>
 </g>
</svg>
