<?xml version="1.0" encoding="UTF-8"?>
<svg width="752pt" height="752pt" version="1.1" viewBox="0 0 752 752" xmlns="http://www.w3.org/2000/svg">
 <g fill="#fff">
  <path d="m377.86 586.62c33.715 0 61.746-24.234 67.68-56.227h-135.36c5.9336 31.988 33.965 56.227 67.68 56.227z"/>
  <path d="m544 433.84c-17.379 0-31.473-14.094-31.473-31.473v-48.645c0-5.4727-0.32812-10.875-0.95703-16.188-7.1992 2.7148-14.992 4.2109-23.145 4.2109-36.23 0-65.602-29.371-65.602-65.602 0-16.695 6.2461-31.926 16.52-43.504-9.375-4.8867-19.398-8.6953-29.906-11.258 3.375-5.5742 5.3242-12.109 5.3242-19.098 0-20.383-16.523-36.906-36.906-36.906s-36.906 16.523-36.906 36.906c0 6.9727 1.9336 13.488 5.2891 19.047-59.121 14.223-103.05 67.438-103.05 130.93v50.105c0 17.379-14.09 31.473-31.473 31.473h-7.375v77.691h347.03l-0.003907-77.688z"/>
  <path d="m537.04 276.15c0 26.848-21.766 48.613-48.613 48.613-26.848 0-48.613-21.766-48.613-48.613 0-26.852 21.766-48.613 48.613-48.613 26.848 0 48.613 21.762 48.613 48.613"/>
 </g>
</svg>
