<?xml version="1.0" encoding="UTF-8"?>
<svg width="752pt" height="752pt" version="1.1" viewBox="0 0 752 752" xmlns="http://www.w3.org/2000/svg">
 <g fill="#fff">
  <path d="m602.93 302.4v-49.727c0-9.1562-3.6367-17.941-10.113-24.418-6.4766-6.4766-15.262-10.113-24.418-10.113h-41.832c2.2305 20.297 10.816 39.371 24.527 54.504 13.715 15.129 31.855 25.543 51.836 29.754z"/>
  <path d="m506.78 218.14h-261.46 0.003907c-2.3047 25.566-12.988 49.656-30.395 68.523-17.402 18.867-40.555 31.457-65.852 35.812v107.05c25.277 4.3711 48.406 16.969 65.793 35.836 17.387 18.867 28.055 42.945 30.352 68.5h261.46c2.3047-25.566 12.988-49.656 30.391-68.527 17.406-18.867 40.559-31.457 65.855-35.809v-107.05c-25.281-4.375-48.41-16.973-65.793-35.84-17.387-18.863-28.055-42.941-30.355-68.496zm-86.672 176.8c-1.9258 15.59-18.895 26.539-34.238 29.152v16.035h-19.73v-16.969c-13.57-3.625-25.301-12.172-32.906-23.977l16.477-10.852c3.3438 5.4609 8.1445 9.8867 13.859 12.777 5.7148 2.8945 12.121 4.1406 18.504 3.5977 8.6836-1.2812 17.809-7.3008 18.449-12.184 0.83984-7.1523-0.78906-10.113-12.184-13.566-6.2148-1.875-11.496-3.207-16.133-4.3906-13.516-3.5039-23.332-6.0195-31.031-16.477-5.0312-6.75-6.9531-15.328-5.2773-23.578 1.9688-9.1758 7.6953-17.105 15.785-21.855 4.4375-2.5586 9.3633-4.1562 14.457-4.6875v-15.836h19.734v17.168h-0.003906c13.711 3.3555 25.508 12.059 32.758 24.172l-17.168 9.8672c-4.6172-7.4688-12.02-12.797-20.57-14.801-6.3477-1.9961-13.207-1.6094-19.289 1.0859-3.3281 1.8945-5.707 5.0977-6.5625 8.832-0.50781 2.8164 0.23047 5.7109 2.0234 7.9414 3.4023 4.5859 7.25 5.7227 20.078 9.0273 4.9336 1.2344 10.262 2.6641 16.871 4.6367 6.6094 1.9727 29.254 8.832 26.098 34.879z"/>
  <path d="m526.56 533.86h41.832c9.1562 0 17.941-3.6406 24.418-10.117 6.4766-6.4727 10.113-15.258 10.113-24.418v-49.723c-19.98 4.2109-38.121 14.621-51.836 29.754-13.711 15.129-22.297 34.203-24.527 54.504z"/>
  <path d="m149.08 449.61v49.723c0 9.1602 3.6367 17.945 10.113 24.418 6.4766 6.4766 15.258 10.117 24.418 10.117h41.832c-2.2305-20.301-10.816-39.375-24.527-54.504-13.715-15.133-31.855-25.543-51.836-29.754z"/>
  <path d="m225.44 218.14h-41.832c-9.1602 0-17.941 3.6367-24.418 10.113-6.4766 6.4766-10.113 15.262-10.113 24.418v49.727c19.98-4.2109 38.121-14.625 51.836-29.754 13.711-15.133 22.297-34.207 24.527-54.504z"/>
 </g>
</svg>
