<?xml version="1.0" encoding="UTF-8"?>
<svg width="752pt" height="752pt" version="1.1" viewBox="0 0 752 752" xmlns="http://www.w3.org/2000/svg">
 <g fill="#fff">
  <path d="m399.31 226.9c0 47.406-38.43 85.836-85.836 85.836s-85.836-38.43-85.836-85.836 38.43-85.836 85.836-85.836 85.836 38.43 85.836 85.836"/>
  <path d="m476.27 367.86c-15.906-35.52-49.945-61.418-90.645-65.859-18.871 18.129-44.027 28.859-72.148 28.859-27.75 0-53.277-11.098-72.148-28.859-56.234 5.9219-100.26 53.648-100.26 111.73v116.18h229.02c-2.5898-10.359-4.0703-21.09-4.0703-31.82 0.37109-65.484 48.098-119.87 110.25-130.23z"/>
  <path d="m604.65 479.23h-21.461c-2.2188-10.359-6.2891-20.348-12.211-29.23l15.168-15.168c2.5898-2.5898 2.5898-6.2891 0-8.8789l-17.02-17.02c-2.5898-2.5898-6.2891-2.5898-8.8789 0l-15.168 15.168c-8.8789-5.5508-18.5-9.9883-29.23-12.211l0.003907-21.086c0-3.3281-2.9609-6.2891-6.2891-6.2891h-24.418c-3.3281 0-6.2891 2.9609-6.2891 6.2891v21.461c-10.359 2.2188-20.348 6.2891-29.23 12.211l-14.43-15.172c-2.5898-2.5898-6.2891-2.5898-8.8789 0l-17.02 17.02c-2.5898 2.5898-2.5898 6.2891 0 8.8789l15.168 15.168c-5.5508 8.8789-9.9883 18.5-12.211 29.23h-21.457c-3.3281 0-6.2891 2.9609-6.2891 6.2891v24.418c0 3.3281 2.9609 6.2891 6.2891 6.2891h21.461c2.2188 10.73 6.2891 20.348 12.211 29.23l-15.168 15.168c-2.5898 2.5898-2.5898 6.2891 0 8.8789l17.02 17.02c2.5898 2.5898 6.2891 2.5898 8.8789 0l15.168-15.168c8.8789 5.5508 18.5 9.9883 29.23 12.211v21.461c0 3.3281 2.9609 6.2891 6.2891 6.2891h24.418c3.3281 0 6.2891-2.9609 6.2891-6.2891v-22.203c10.359-2.2188 20.348-6.2891 29.23-12.211l15.168 15.168c2.5898 2.5898 6.2891 2.5898 8.8789 0l17.02-17.02c2.5898-2.5898 2.5898-6.2891 0-8.8789l-15.168-15.168c5.5508-8.8789 9.9883-18.5 12.211-29.23h21.461c3.3281 0 6.2891-2.9609 6.2891-6.2891v-24.418c-0.74609-2.957-3.707-5.918-7.0352-5.918zm-106.93 70.297c-28.488 0-51.797-23.309-51.797-51.797 0-28.488 23.309-51.797 51.797-51.797 28.488 0 51.797 23.309 51.797 51.797 0 28.488-23.309 51.797-51.797 51.797z"/>
 </g>
</svg>
